External Loads File
version=1
nRows=93
nColumns=13
Range=5.000000e-03-10 seconds
endheader
time 	forceRightX 	forceRightY 	forceRightZ 	pointRightX 	pointRightY 	pointRightZ 	forceLeftX 	forceLeftY 	forceLeftZ 	pointLeftX 	pointLeftY 	pointLeftZ 		
5.005000 -13.221146 -79.509577 -0.000000 0.159139 0.414271 -0.113979 25.277962 1054.959738 -0.000000 0.408360 0.237338 -0.366610
5.010000 -17.770621 -78.915237 -0.000000 0.164994 0.423794 -0.114258 39.073031 1099.655965 -0.000000 0.403301 0.227516 -0.366568
5.015000 -23.197189 -78.389795 -0.000000 0.171686 0.433073 -0.114464 55.392726 1141.886612 -0.000000 0.397731 0.218121 -0.366493
5.020000 -29.217996 -77.804387 -0.000000 0.178518 0.441833 -0.114783 72.040670 1180.630064 -0.000000 0.391715 0.209198 -0.366450
5.025000 -35.794287 -77.055445 -0.000000 0.185969 0.450317 -0.115082 90.291372 1214.632740 -0.000000 0.385340 0.200999 -0.366329
5.030000 -42.912026 -76.099098 -0.000000 0.193959 0.458046 -0.115431 111.521602 1242.449695 -0.000000 0.378588 0.192515 -0.366246
5.035000 -50.293242 -75.109798 -0.000000 0.202254 0.465456 -0.115781 132.166951 1263.002221 -0.000000 0.371482 0.185427 -0.366234
5.040000 -58.088830 -74.056245 -0.000000 0.210932 0.472423 -0.116089 154.966029 1274.744931 -0.000000 0.363947 0.178553 -0.366291
5.045000 -66.217085 -72.990752 -0.000000 0.219918 0.478871 -0.116420 178.416050 1276.795871 -0.000000 0.356161 0.171860 -0.366300
5.050000 -74.483870 -71.958880 -0.000000 0.228934 0.484815 -0.117140 199.201838 1269.038994 -0.000000 0.348110 0.166520 -0.366331
5.055000 -82.993083 -70.563622 -0.000000 0.238354 0.490089 -0.117418 219.930283 1250.949976 -0.000000 0.339669 0.161506 -0.366293
5.060000 -91.566959 -68.578369 -0.000000 0.248100 0.494752 -0.117855 238.774410 1223.008951 -0.000000 0.331056 0.157062 -0.366318
5.065000 -100.132155 -65.626465 -0.000000 0.258401 0.498739 -0.118282 256.147613 1185.600207 -0.000000 0.322202 0.153315 -0.366263
5.070000 -108.311730 -61.827640 -0.000000 0.267949 0.502172 -0.118658 267.308261 1140.439259 -0.000000 0.313202 0.150111 -0.366374
5.075000 -116.268465 -56.532134 -0.000000 0.278197 0.504781 -0.119110 277.451742 1087.168888 -0.000000 0.303842 0.147486 -0.365201
5.080000 -123.632775 -50.112254 -0.000000 0.288358 0.506685 -0.119412 282.111981 1027.741306 -0.000000 0.294719 0.145583 -0.365516
5.085000 -130.342967 -42.459292 -0.000000 0.298613 0.507852 -0.119680 283.011690 962.703545 -0.000000 0.285561 0.144273 -0.365874
5.090000 -136.181159 -33.787613 -0.000000 0.308724 0.508326 -0.119819 279.666514 893.205462 -0.000000 0.276409 0.143678 -0.366379
5.095000 -140.935871 -24.108696 -0.000000 0.318988 0.508237 -0.120181 273.277002 819.899221 -0.000000 0.267213 0.143842 -0.366666
5.100000 -144.272137 -13.815669 -0.000000 0.328898 0.507378 -0.120395 262.617967 744.223648 -0.000000 0.258189 0.144802 -0.366808
5.105000 -145.988184 -2.859625 -0.000000 0.338585 0.505895 -0.120546 248.817767 666.894539 -0.000000 0.249172 0.146603 -0.366898
5.110000 -146.008589 8.727301 -0.000000 0.348045 0.503700 -0.120907 231.875431 589.085618 -0.000000 0.240413 0.149168 -0.367081
5.115000 -144.499066 20.953954 -0.000000 0.356734 0.501181 -0.120860 211.522732 512.226317 -0.000000 0.231894 0.152584 -0.367143
5.120000 -141.753628 34.632068 -0.000000 0.365441 0.497341 -0.120736 189.776792 436.938147 -0.000000 0.223620 0.156313 -0.367024
5.125000 -138.228674 50.351760 -0.000000 0.373732 0.493090 -0.120590 166.880449 364.614047 -0.000000 0.215500 0.161456 -0.366794
5.130000 -134.535544 68.816903 -0.000000 0.381356 0.488061 -0.120467 143.125839 296.663316 -0.000000 0.207686 0.167468 -0.366347
5.135000 -131.312112 90.961878 -0.000000 0.388530 0.482296 -0.120257 119.294554 234.201777 -0.000000 0.200243 0.173898 -0.365963
5.140000 -129.082328 117.849661 -0.000000 0.395136 0.475617 -0.119782 96.312889 178.076807 -0.000000 0.192988 0.180809 -0.365670
5.145000 -128.298799 150.370777 -0.000000 0.401320 0.468256 -0.119008 74.832499 128.958886 -0.000000 0.186127 0.188171 -0.365164
5.150000 -129.125236 189.272319 -0.000000 0.406923 0.460051 -0.118270 55.561056 87.044666 -0.000000 0.179632 0.195973 -0.365598
5.155000 -131.431417 234.870293 -0.000000 0.411847 0.451132 -0.117475 39.032478 52.090723 -0.000000 0.173388 0.204232 -0.365181
5.160000 -134.884781 286.841237 -0.000000 0.416142 0.441589 -0.116940 25.525551 23.488450 -0.000000 0.167528 0.212950 -0.364767
5.165000 -138.822221 344.268093 -0.000000 0.420105 0.431730 -0.116403 15.078015 0.372229 -0.000000 0.162088 0.222229 -0.364322
5.170000 -142.648765 405.608734 -0.000000 0.423597 0.421459 -0.116155 7.467776 -18.186171 -0.000000 0.157154 0.231929 -0.364001
5.175000 -146.076736 468.952389 -0.000000 0.426653 0.411028 -0.116061 2.330208 -33.046947 -0.000000 0.152750 0.241878 -0.363643
5.180000 -147.977513 532.689555 -0.000000 0.429288 0.400256 -0.116173 -0.823404 -44.896447 -0.000000 0.148967 0.252375 -0.363463
5.185000 -148.550108 595.106656 -0.000000 0.431362 0.389265 -0.116241 -2.368471 -54.182450 -0.000000 0.145724 0.263054 -0.363116
5.190000 -147.242985 655.242685 -0.000000 0.432978 0.378021 -0.116593 -2.654840 -61.146712 -0.000000 0.143092 0.274043 -0.362854
5.195000 -144.360193 712.513192 -0.000000 0.434015 0.366475 -0.116492 -1.848922 -65.918780 -0.000000 0.141111 0.285121 -0.362850
5.200000 -140.005380 766.855075 -0.000000 0.434862 0.354914 -0.116833 -0.042787 -68.615697 -0.000000 0.139720 0.296388 -0.362754
5.205000 -135.341591 818.159643 -0.000000 0.435135 0.343362 -0.116754 2.804362 -69.393228 -0.000000 0.139010 0.307497 -0.362981
5.210000 -129.592176 866.528470 -0.000000 0.435015 0.331793 -0.117267 6.540398 -68.479984 -0.000000 0.138864 0.318555 -0.363102
5.215000 -122.728053 911.825236 -0.000000 0.434388 0.320419 -0.115578 11.021068 -66.209831 -0.000000 0.139359 0.329671 -0.362353
5.220000 -113.484829 954.184488 -0.000000 0.432845 0.308818 -0.115969 15.959504 -63.028746 -0.000000 0.140723 0.340643 -0.363262
5.225000 -102.294728 993.617128 -0.000000 0.431211 0.297449 -0.116682 21.179394 -59.439922 -0.000000 0.142606 0.351782 -0.363470
5.230000 -89.696062 1030.111222 -0.000000 0.429005 0.286050 -0.116660 26.481210 -55.991249 -0.000000 0.145152 0.362524 -0.363815
5.235000 -75.140609 1063.564121 -0.000000 0.426351 0.275026 -0.116451 31.552560 -53.233047 -0.000000 0.148264 0.373380 -0.363855
5.240000 -59.045380 1093.536833 -0.000000 0.423156 0.264309 -0.116514 36.080733 -51.553658 -0.000000 0.151966 0.384005 -0.364162
5.245000 -40.618236 1119.499872 -0.000000 0.419420 0.253823 -0.116374 39.670947 -51.184257 -0.000000 0.156271 0.394457 -0.364058
5.250000 -20.368220 1140.812081 -0.000000 0.415023 0.243784 -0.116023 42.021800 -52.113482 -0.000000 0.161169 0.404679 -0.364141
5.255000 0.855294 1156.898743 -0.000000 0.410206 0.234193 -0.115977 42.930154 -54.105160 -0.000000 0.166565 0.414618 -0.364326
5.260000 23.429445 1167.207220 -0.000000 0.404927 0.224820 -0.115915 42.238985 -56.770960 -0.000000 0.172390 0.424258 -0.364050
5.265000 45.631252 1171.152988 -0.000000 0.399363 0.215977 -0.115766 40.000011 -59.492245 -0.000000 0.178865 0.433340 -0.364350
5.270000 69.197293 1168.032939 -0.000000 0.393076 0.207446 -0.116004 36.221355 -61.686076 -0.000000 0.185761 0.442204 -0.364152
5.275000 91.395638 1157.447531 -0.000000 0.386452 0.199670 -0.115963 31.252688 -62.617330 -0.000000 0.193083 0.450805 -0.363969
5.280000 111.727919 1139.202474 -0.000000 0.379239 0.192496 -0.114917 25.396967 -61.685367 -0.000000 0.200666 0.458751 -0.363997
5.285000 130.551052 1113.273644 -0.000000 0.371796 0.185834 -0.114831 18.936996 -58.371951 -0.000000 0.208844 0.466222 -0.363474
5.290000 147.113229 1079.950839 -0.000000 0.363869 0.179839 -0.115089 12.200667 -52.248204 -0.000000 0.217305 0.472930 -0.363272
5.295000 162.796186 1039.405865 -0.000000 0.355743 0.174355 -0.114887 5.344592 -43.114403 -0.000000 0.226637 0.478882 -0.364015
5.300000 174.192128 992.705592 -0.000000 0.347376 0.169466 -0.114712 -1.355754 -30.993171 -0.000000 0.235627 0.484272 -0.363582
5.305000 183.206350 940.330656 -0.000000 0.338732 0.165202 -0.114497 -7.939490 -16.215706 -0.000000 0.244906 0.489010 -0.363887
5.310000 190.224114 883.142418 -0.000000 0.329747 0.161583 -0.114290 -14.403908 0.644341 -0.000000 0.254635 0.492846 -0.363822
5.315000 193.753784 822.626245 -0.000000 0.320644 0.158633 -0.113974 -20.777757 18.727576 -0.000000 0.264379 0.495561 -0.364615
5.320000 195.771472 759.680497 -0.000000 0.311220 0.156326 -0.113698 -27.058424 37.052916 -0.000000 0.274515 0.497878 -0.364718
5.325000 194.936492 696.018656 -0.000000 0.301693 0.154563 -0.113473 -33.316771 54.505076 -0.000000 0.284558 0.499529 -0.365034
5.330000 192.551890 632.578167 -0.000000 0.292013 0.153658 -0.113087 -39.570394 70.200638 -0.000000 0.294857 0.500590 -0.364476
5.335000 188.238688 570.513363 -0.000000 0.282125 0.153382 -0.112852 -46.001827 83.526982 -0.000000 0.304831 0.501043 -0.364354
5.340000 182.333966 510.500396 -0.000000 0.272237 0.153997 -0.112450 -52.761466 94.338025 -0.000000 0.314417 0.500847 -0.364525
5.345000 176.549713 452.391378 -0.000000 0.261850 0.155359 -0.112489 -59.598545 103.083413 -0.000000 0.323830 0.499707 -0.365218
5.350000 170.384832 396.524900 -0.000000 0.251838 0.157594 -0.112257 -66.455318 110.337992 -0.000000 0.333306 0.497918 -0.364920
5.355000 164.185578 342.750380 -0.000000 0.241748 0.160750 -0.112100 -73.004693 116.957673 -0.000000 0.342448 0.495725 -0.365139
5.360000 157.920605 290.967804 -0.000000 0.231771 0.164766 -0.111944 -78.986291 123.844523 -0.000000 0.351223 0.492752 -0.365292
5.365000 151.458343 241.073697 -0.000000 0.222093 0.169656 -0.112131 -84.217549 131.909493 -0.000000 0.359676 0.488992 -0.365525
5.370000 144.525149 193.009870 -0.000000 0.212714 0.175468 -0.112339 -88.628884 142.029731 -0.000000 0.367662 0.484505 -0.365782
5.375000 136.686539 146.859795 -0.000000 0.203679 0.181723 -0.112553 -92.332836 154.980879 -0.000000 0.375100 0.479221 -0.365980
5.380000 127.631639 102.773461 -0.000000 0.195040 0.188446 -0.112726 -95.495269 171.483471 -0.000000 0.381937 0.473229 -0.365398
5.385000 117.228723 61.055252 -0.000000 0.186890 0.195634 -0.112888 -98.204242 192.214042 -0.000000 0.388499 0.466699 -0.365730
5.390000 105.464352 22.354850 -0.000000 0.179284 0.203265 -0.113081 -100.619094 217.633188 -0.000000 0.394483 0.459304 -0.366246
5.395000 92.545731 -12.700920 -0.000000 0.172160 0.211474 -0.113234 -102.657216 248.039930 -0.000000 0.400039 0.451239 -0.366558
5.400000 78.809247 -43.432809 -0.000000 0.165616 0.219861 -0.113356 -104.621309 283.196203 -0.000000 0.405117 0.442680 -0.366913
5.405000 64.717340 -69.495160 -0.000000 0.159605 0.228754 -0.113549 -106.467350 322.613099 -0.000000 0.409624 0.433931 -0.367215
5.410000 50.533557 -90.838263 -0.000000 0.154276 0.237874 -0.113704 -107.132018 365.728767 -0.000000 0.413775 0.423843 -0.367417
5.415000 37.019561 -107.279007 -0.000000 0.149541 0.247237 -0.113985 -107.410935 411.115697 -0.000000 0.417556 0.413967 -0.368208
5.420000 24.828994 -119.159793 -0.000000 0.145549 0.256679 -0.113827 -107.388788 457.526128 -0.000000 0.420783 0.404158 -0.368415
5.425000 14.054547 -127.138808 -0.000000 0.142087 0.266336 -0.113792 -105.506943 504.113755 -0.000000 0.423489 0.393699 -0.368437
5.430000 5.085937 -131.875506 -0.000000 0.139203 0.276249 -0.113738 -102.089958 549.708487 -0.000000 0.425646 0.383135 -0.368486
5.435000 -2.123149 -134.106463 -0.000000 0.137006 0.286405 -0.113440 -96.595147 593.585512 -0.000000 0.427424 0.372260 -0.368524
5.440000 -7.618452 -134.478264 -0.000000 0.135381 0.296773 -0.113318 -89.349323 635.174340 -0.000000 0.428722 0.361268 -0.368805
5.445000 -11.617622 -133.475068 -0.000000 0.134377 0.307143 -0.113216 -80.690450 674.268004 -0.000000 0.429485 0.350042 -0.369006
5.450000 -14.386697 -131.381659 -0.000000 0.134047 0.317837 -0.113099 -71.064704 711.002095 -0.000000 0.429754 0.339027 -0.369039
5.455000 -16.127293 -128.332218 -0.000000 0.134255 0.328356 -0.112980 -61.100543 745.831909 -0.000000 0.429587 0.327907 -0.368717
5.460000 -17.204307 -124.372004 -0.000000 0.135270 0.339027 -0.112901 -49.963939 779.576312 -0.000000 0.429010 0.316593 -0.368536
5.465000 -17.664041 -119.610679 -0.000000 0.136882 0.349706 -0.112914 -38.172947 813.046828 -0.000000 0.427829 0.305161 -0.368159
